<svg version="1.1" id="Layer_1"
    xmlns="http://www.w3.org/2000/svg" x="0px" y="0px" viewBox="0 0 1920 1080" enableBackground="new 0 0 1920 1080">
    <g>
        <polygon fill="#ECF1F9" points="1846.7,632.4 1809.9,584 1773.1,632.4 1809.9,632.4 	" />
        <rect x="1740.3" y="703.6" transform="matrix(0.7072 -0.7071 0.7071 0.7072 7.1775 1448.4993)" fill="#ECF1F9" width="23.9" height="23.9" />
        <polygon fill="#ECF1F9" points="1773.1,1090.6 1809.8,1139 1846.6,1090.6 1809.8,1090.6 	" />
        <path fill="#ECF1F9" d="M1889.2,979.8l-27.7-36.5l28.9-38l-57.7,0l-20.9-27.5l15-15l-16.1-16.1l78.6-103.6l-74.2,0l18.7-24.6
		l55.5,0l-27.7-36.5l27.8-36.6l-158.7,0l74.2,97.8l-74.2,0l27.7,36.5l-28.9,38l57.7,0l22,29l-16.2,16.2l15,15l-77.4,102l74.2,0
		l-18.7,24.6h-55.5l27.7,36.5l-27.8,36.6l158.7,0l-74.2-97.8L1889.2,979.8z M1877.2,712.6l-39,0l19.5-25.7L1877.2,712.6z
		 M1830.8,712.6h-17l31.7-41.8l8.5,11.2L1830.8,712.6z M1877.3,651.3l-19.6,25.8l-12.2-16.1l-43.7,57.6h24.4l-16.4,21.5l-67.4-88.8
		L1877.3,651.3z M1742.5,1010.4h39l-19.5,25.7L1742.5,1010.4z M1789,1010.4h17l-31.7,41.8l-8.5-11.2L1789,1010.4z M1742.5,1071.6
		l19.6-25.8l12.2,16.1l43.7-57.6h-24.5l16.4-21.5l67.4,88.8L1742.5,1071.6z M1878.4,911.3l-20.6,27.1l-20.6-27.1L1878.4,911.3z
		 M1854,943.3l-7.4,9.7l-31.7-41.8h14.7L1854,943.3z M1741.4,811.7l20.6-27.1l20.6,27.1L1741.4,811.7z M1765.7,779.7l7.4-9.7
		l31.7,41.8H1790L1765.7,779.7z M1816.8,817.7l-43.7-57.6l-11.1,14.6l-19.4-25.6l66.8,0l0.6,0.8l0.6-0.8l66.8,0l-67.4,88.8
		l-15.3-20.2H1816.8z M1742.5,973.9l67.4-88.8l15.3,20.2H1803l43.7,57.6l11.1-14.6l19.4,25.6l-66.8,0l-0.6-0.8l-0.6,0.8
		L1742.5,973.9z" />
        <rect x="1855.5" y="995.5" transform="matrix(0.7071 -0.7071 0.7071 0.7071 -165.3811 1615.5615)" fill="#ECF1F9" width="23.9" height="23.9" />
    </g>
    <g>
        <polygon fill="#ECF1F9" points="1618.7,-58.6 1581.9,-107 1545.1,-58.6 1581.9,-58.6 	" />

        <rect x="1512.3" y="12.6" transform="matrix(0.7072 -0.7071 0.7071 0.7072 428.9828 1084.9412)" fill="#ECF1F9" width="23.9" height="23.9" />
        <polygon fill="#ECF1F9" points="1545.1,399.6 1581.8,448 1618.6,399.6 1581.8,399.6 	" />
        <path fill="#ECF1F9" d="M1661.2,288.8l-27.7-36.5l28.9-38l-57.7,0l-20.9-27.5l15-15l-16.1-16.1l78.6-103.6l-74.2,0l18.7-24.6
		l55.5,0L1633.4-9l27.8-36.6l-158.7,0l74.2,97.8l-74.2,0l27.7,36.5l-28.9,38l57.7,0l22,29l-16.2,16.2l15,15l-77.4,102l74.2,0
		l-18.7,24.6h-55.5l27.7,36.5l-27.8,36.6l158.7,0l-74.2-97.8L1661.2,288.8z M1649.2,21.6l-39,0l19.5-25.7L1649.2,21.6z M1602.8,21.6
		h-17l31.7-41.8L1626-9L1602.8,21.6z M1649.3-39.7l-19.6,25.8L1617.5-30l-43.7,57.6h24.4l-16.4,21.5l-67.4-88.8L1649.3-39.7z
		 M1514.5,319.4h39l-19.5,25.7L1514.5,319.4z M1561,319.4h17l-31.7,41.8l-8.5-11.2L1561,319.4z M1514.5,380.6l19.6-25.8l12.2,16.1
		l43.7-57.6h-24.5l16.4-21.5l67.4,88.8L1514.5,380.6z M1650.4,220.3l-20.6,27.1l-20.6-27.1L1650.4,220.3z M1626,252.3l-7.4,9.7
		l-31.7-41.8h14.7L1626,252.3z M1513.4,120.7l20.6-27.1l20.6,27.1L1513.4,120.7z M1537.7,88.7l7.4-9.7l31.7,41.8H1562L1537.7,88.7z
		 M1588.8,126.7l-43.7-57.6L1534,83.8l-19.4-25.6l66.8,0l0.6,0.8l0.6-0.8l66.8,0l-67.4,88.8l-15.3-20.2H1588.8z M1514.5,282.9
		l67.4-88.8l15.3,20.2H1575l43.7,57.6l11.1-14.6l19.4,25.6l-66.8,0l-0.6-0.8l-0.6,0.8L1514.5,282.9z" />
        <rect x="1627.5" y="304.5" transform="matrix(0.7071 -0.7071 0.7071 0.7071 256.45 1251.9519)" fill="#ECF1F9" width="23.9" height="23.9" />
    </g>
    <g>
        <polygon fill="#ECF1F9" points="360.7,-138.2 251.9,-281.5 143.2,-138.2 251.9,-138.2 	" />
        <polygon fill="#ECF1F9" points="81.5,57.8 31.5,107.8 81.5,157.8 131.5,107.8 	" />
        <polygon fill="#ECF1F9" points="143,1217.2 251.8,1360.5 360.6,1217.2 251.8,1217.2 	" />
        <path fill="#ECF1F9" d="M486.6,889.5l-81.9-107.9L490,669.1l-170.7,0l-61.7-81.3l44.3-44.2l-47.7-47.7l232.6-306.4l-219.6,0
		l55.3-72.9l164.1,0l-82-108.1l82.2-108.3l-469.5,0l219.6,289.3l-219.6,0l81.9,107.9L13.7,409.9l170.7,0l65.2,85.9l-47.8,47.8
		l44.2,44.2L17,889.5l219.6,0l-55.3,72.9H17.2l82,108.1l-82.2,108.3l469.5,0L266.9,889.5L486.6,889.5z M451.1,99l-115.3,0l57.6-75.9
		L451.1,99z M313.7,99h-50.3l93.8-123.6l25.1,33.1L313.7,99z M451.3-82.2L393.4-6l-36.2-47.6L228,116.6h72.3l-48.4,63.8L52.6-82.2
		L451.3-82.2z M52.7,980H168l-57.6,75.9L52.7,980z M190.1,980h50.2l-93.8,123.6l-25.1-33.1L190.1,980z M52.5,1161.2l57.8-76.2
		l36.2,47.7l129.2-170.3h-72.3l48.4-63.8l199.3,262.6L52.5,1161.2z M454.6,686.7l-61,80.3l-61-80.3L454.6,686.7z M382.6,781.6
		l-21.8,28.7l-93.8-123.6h43.6L382.6,781.6z M49.2,392.3l61-80.3l61,80.3L49.2,392.3z M121.2,297.4l21.8-28.7l93.8,123.6h-43.6
		L121.2,297.4z M272.2,409.9L143,239.6l-32.8,43.3l-57.5-75.8l197.5,0l1.8,2.3l1.8-2.3l197.5,0L251.9,469.7l-45.4-59.8H272.2z
		 M52.5,871.9l199.3-262.6l45.4,59.8h-65.7l129.3,170.3l32.8-43.3l57.5,75.8l-197.5,0l-1.8-2.4l-1.8,2.4L52.5,871.9z" />
        <rect x="386.9" y="935.8" transform="matrix(0.7071 -0.7071 0.7071 0.7071 -563.0569 583.0395)" fill="#ECF1F9" width="70.7" height="70.7" />
    </g>
</svg>